<mxfile host="app.diagrams.net" modified="2024-03-11T10:27:12.911Z" agent="Mozilla/5.0 (Windows NT 10.0; Win64; x64) AppleWebKit/537.36 (KHTML, like Gecko) Chrome/122.0.0.0 Safari/537.36" version="24.0.1" etag="jVBxnoApeLjyftnLToJM" type="device">
  <diagram id="SjyvnTYL4WLvGiceQ5JA" name="Strona-1">
    <mxGraphModel dx="2868" dy="1492" grid="1" gridSize="10" guides="1" tooltips="1" connect="1" arrows="1" fold="1" page="1" pageScale="1" pageWidth="827" pageHeight="1169" math="0" shadow="0">
      <root>
        <mxCell id="0" />
        <mxCell id="1" parent="0" />
        <mxCell id="MYHG3JWobE4DRymCTWOl-1" value="" style="ellipse;html=1;shape=endState;fillColor=#000000;strokeColor=#ff0000;" vertex="1" parent="1">
          <mxGeometry x="250" y="800" width="30" height="30" as="geometry" />
        </mxCell>
        <mxCell id="MYHG3JWobE4DRymCTWOl-2" value="" style="ellipse;html=1;shape=startState;fillColor=#000000;strokeColor=#ff0000;" vertex="1" parent="1">
          <mxGeometry x="250" y="40" width="30" height="30" as="geometry" />
        </mxCell>
        <mxCell id="MYHG3JWobE4DRymCTWOl-3" value="" style="edgeStyle=orthogonalEdgeStyle;html=1;verticalAlign=bottom;endArrow=open;endSize=8;strokeColor=#ff0000;rounded=0;" edge="1" source="MYHG3JWobE4DRymCTWOl-2" parent="1">
          <mxGeometry relative="1" as="geometry">
            <mxPoint x="265" y="130" as="targetPoint" />
          </mxGeometry>
        </mxCell>
        <mxCell id="MYHG3JWobE4DRymCTWOl-18" style="edgeStyle=orthogonalEdgeStyle;rounded=0;orthogonalLoop=1;jettySize=auto;html=1;exitX=0.5;exitY=1;exitDx=0;exitDy=0;" edge="1" parent="1" source="MYHG3JWobE4DRymCTWOl-5" target="MYHG3JWobE4DRymCTWOl-17">
          <mxGeometry relative="1" as="geometry" />
        </mxCell>
        <mxCell id="MYHG3JWobE4DRymCTWOl-21" value="Начать авторизацию" style="edgeLabel;html=1;align=center;verticalAlign=middle;resizable=0;points=[];" vertex="1" connectable="0" parent="MYHG3JWobE4DRymCTWOl-18">
          <mxGeometry x="-0.1678" relative="1" as="geometry">
            <mxPoint as="offset" />
          </mxGeometry>
        </mxCell>
        <mxCell id="MYHG3JWobE4DRymCTWOl-5" value="Ожидание создания сессии" style="rounded=1;whiteSpace=wrap;html=1;arcSize=40;fontColor=#000000;fillColor=#ffffc0;strokeColor=#ff0000;" vertex="1" parent="1">
          <mxGeometry x="205" y="130" width="120" height="40" as="geometry" />
        </mxCell>
        <mxCell id="MYHG3JWobE4DRymCTWOl-7" value="Добавить товар на склад" style="rounded=1;whiteSpace=wrap;html=1;arcSize=40;fontColor=#000000;fillColor=#ffffc0;strokeColor=#ff0000;" vertex="1" parent="1">
          <mxGeometry x="850" y="410" width="120" height="40" as="geometry" />
        </mxCell>
        <mxCell id="MYHG3JWobE4DRymCTWOl-8" value="Удалить товар со склада" style="rounded=1;whiteSpace=wrap;html=1;arcSize=40;fontColor=#000000;fillColor=#ffffc0;strokeColor=#ff0000;" vertex="1" parent="1">
          <mxGeometry x="850" y="480" width="120" height="40" as="geometry" />
        </mxCell>
        <mxCell id="MYHG3JWobE4DRymCTWOl-29" style="edgeStyle=orthogonalEdgeStyle;rounded=0;orthogonalLoop=1;jettySize=auto;html=1;exitX=1;exitY=0.5;exitDx=0;exitDy=0;" edge="1" parent="1" source="MYHG3JWobE4DRymCTWOl-9">
          <mxGeometry relative="1" as="geometry">
            <mxPoint x="480" y="430" as="targetPoint" />
          </mxGeometry>
        </mxCell>
        <mxCell id="MYHG3JWobE4DRymCTWOl-31" value="Добавить товар на склад" style="edgeLabel;html=1;align=center;verticalAlign=middle;resizable=0;points=[];" vertex="1" connectable="0" parent="MYHG3JWobE4DRymCTWOl-29">
          <mxGeometry x="-0.0631" y="1" relative="1" as="geometry">
            <mxPoint y="-9" as="offset" />
          </mxGeometry>
        </mxCell>
        <mxCell id="MYHG3JWobE4DRymCTWOl-30" style="edgeStyle=orthogonalEdgeStyle;rounded=0;orthogonalLoop=1;jettySize=auto;html=1;exitX=1;exitY=0.5;exitDx=0;exitDy=0;entryX=0;entryY=0.5;entryDx=0;entryDy=0;" edge="1" parent="1" source="MYHG3JWobE4DRymCTWOl-9" target="MYHG3JWobE4DRymCTWOl-10">
          <mxGeometry relative="1" as="geometry">
            <mxPoint x="460" y="500" as="targetPoint" />
            <Array as="points">
              <mxPoint x="325" y="500" />
            </Array>
          </mxGeometry>
        </mxCell>
        <mxCell id="MYHG3JWobE4DRymCTWOl-39" style="edgeStyle=orthogonalEdgeStyle;rounded=0;orthogonalLoop=1;jettySize=auto;html=1;exitX=0.5;exitY=1;exitDx=0;exitDy=0;" edge="1" parent="1" source="MYHG3JWobE4DRymCTWOl-9" target="MYHG3JWobE4DRymCTWOl-12">
          <mxGeometry relative="1" as="geometry" />
        </mxCell>
        <mxCell id="MYHG3JWobE4DRymCTWOl-9" value="Ожидание выбора действия" style="rounded=1;whiteSpace=wrap;html=1;arcSize=40;fontColor=#000000;fillColor=#ffffc0;strokeColor=#ff0000;" vertex="1" parent="1">
          <mxGeometry x="205" y="410" width="120" height="40" as="geometry" />
        </mxCell>
        <mxCell id="MYHG3JWobE4DRymCTWOl-35" style="edgeStyle=orthogonalEdgeStyle;rounded=0;orthogonalLoop=1;jettySize=auto;html=1;exitX=0.5;exitY=1;exitDx=0;exitDy=0;entryX=0.75;entryY=1;entryDx=0;entryDy=0;" edge="1" parent="1" source="MYHG3JWobE4DRymCTWOl-10" target="MYHG3JWobE4DRymCTWOl-9">
          <mxGeometry relative="1" as="geometry">
            <Array as="points">
              <mxPoint x="540" y="530" />
              <mxPoint x="295" y="530" />
            </Array>
          </mxGeometry>
        </mxCell>
        <mxCell id="MYHG3JWobE4DRymCTWOl-42" style="edgeStyle=orthogonalEdgeStyle;rounded=0;orthogonalLoop=1;jettySize=auto;html=1;exitX=1;exitY=0.5;exitDx=0;exitDy=0;entryX=0;entryY=0.5;entryDx=0;entryDy=0;" edge="1" parent="1" source="MYHG3JWobE4DRymCTWOl-10" target="MYHG3JWobE4DRymCTWOl-8">
          <mxGeometry relative="1" as="geometry" />
        </mxCell>
        <mxCell id="MYHG3JWobE4DRymCTWOl-45" value="[Данный товар есть в системе]" style="edgeLabel;html=1;align=center;verticalAlign=middle;resizable=0;points=[];" vertex="1" connectable="0" parent="MYHG3JWobE4DRymCTWOl-42">
          <mxGeometry x="-0.2813" y="1" relative="1" as="geometry">
            <mxPoint x="20" y="-9" as="offset" />
          </mxGeometry>
        </mxCell>
        <mxCell id="MYHG3JWobE4DRymCTWOl-10" value="Обработка запроса на удаление" style="rounded=1;whiteSpace=wrap;html=1;arcSize=40;fontColor=#000000;fillColor=#ffffc0;strokeColor=#ff0000;" vertex="1" parent="1">
          <mxGeometry x="480" y="480" width="120" height="40" as="geometry" />
        </mxCell>
        <mxCell id="MYHG3JWobE4DRymCTWOl-34" style="edgeStyle=orthogonalEdgeStyle;rounded=0;orthogonalLoop=1;jettySize=auto;html=1;exitX=0.5;exitY=0;exitDx=0;exitDy=0;entryX=0.75;entryY=0;entryDx=0;entryDy=0;" edge="1" parent="1" source="MYHG3JWobE4DRymCTWOl-11" target="MYHG3JWobE4DRymCTWOl-9">
          <mxGeometry relative="1" as="geometry" />
        </mxCell>
        <mxCell id="MYHG3JWobE4DRymCTWOl-40" value="[Превышено допустимое количество]" style="edgeLabel;html=1;align=center;verticalAlign=middle;resizable=0;points=[];" vertex="1" connectable="0" parent="MYHG3JWobE4DRymCTWOl-34">
          <mxGeometry x="0.0939" y="-2" relative="1" as="geometry">
            <mxPoint as="offset" />
          </mxGeometry>
        </mxCell>
        <mxCell id="MYHG3JWobE4DRymCTWOl-43" style="edgeStyle=orthogonalEdgeStyle;rounded=0;orthogonalLoop=1;jettySize=auto;html=1;entryX=0;entryY=0.5;entryDx=0;entryDy=0;exitX=1;exitY=0.5;exitDx=0;exitDy=0;" edge="1" parent="1" source="MYHG3JWobE4DRymCTWOl-11" target="MYHG3JWobE4DRymCTWOl-7">
          <mxGeometry relative="1" as="geometry">
            <mxPoint x="670" y="430" as="sourcePoint" />
          </mxGeometry>
        </mxCell>
        <mxCell id="MYHG3JWobE4DRymCTWOl-44" value="[Допустимое количество не превышено]" style="edgeLabel;html=1;align=center;verticalAlign=middle;resizable=0;points=[];" vertex="1" connectable="0" parent="MYHG3JWobE4DRymCTWOl-43">
          <mxGeometry x="-0.2517" y="1" relative="1" as="geometry">
            <mxPoint x="16" y="-9" as="offset" />
          </mxGeometry>
        </mxCell>
        <mxCell id="MYHG3JWobE4DRymCTWOl-11" value="Обработка запроса на добавление" style="rounded=1;whiteSpace=wrap;html=1;arcSize=40;fontColor=#000000;fillColor=#ffffc0;strokeColor=#ff0000;" vertex="1" parent="1">
          <mxGeometry x="480" y="410" width="120" height="40" as="geometry" />
        </mxCell>
        <mxCell id="MYHG3JWobE4DRymCTWOl-12" value="Завершить сессию&lt;div&gt;&lt;br&gt;&lt;/div&gt;" style="rounded=1;whiteSpace=wrap;html=1;arcSize=40;fontColor=#000000;fillColor=#ffffc0;strokeColor=#ff0000;" vertex="1" parent="1">
          <mxGeometry x="205" y="650" width="120" height="40" as="geometry" />
        </mxCell>
        <mxCell id="MYHG3JWobE4DRymCTWOl-15" style="edgeStyle=orthogonalEdgeStyle;rounded=0;orthogonalLoop=1;jettySize=auto;html=1;exitX=0.5;exitY=1;exitDx=0;exitDy=0;" edge="1" parent="1" source="MYHG3JWobE4DRymCTWOl-12" target="MYHG3JWobE4DRymCTWOl-1">
          <mxGeometry relative="1" as="geometry">
            <mxPoint x="265" y="760" as="sourcePoint" />
          </mxGeometry>
        </mxCell>
        <mxCell id="MYHG3JWobE4DRymCTWOl-16" value="Завершить сессию" style="edgeLabel;html=1;align=center;verticalAlign=middle;resizable=0;points=[];" vertex="1" connectable="0" parent="MYHG3JWobE4DRymCTWOl-15">
          <mxGeometry x="-0.2874" y="-2" relative="1" as="geometry">
            <mxPoint as="offset" />
          </mxGeometry>
        </mxCell>
        <mxCell id="MYHG3JWobE4DRymCTWOl-22" style="edgeStyle=orthogonalEdgeStyle;rounded=0;orthogonalLoop=1;jettySize=auto;html=1;exitX=0;exitY=0.5;exitDx=0;exitDy=0;entryX=0;entryY=0.5;entryDx=0;entryDy=0;" edge="1" parent="1" source="MYHG3JWobE4DRymCTWOl-17" target="MYHG3JWobE4DRymCTWOl-5">
          <mxGeometry relative="1" as="geometry">
            <Array as="points">
              <mxPoint x="60" y="250" />
              <mxPoint x="60" y="150" />
            </Array>
          </mxGeometry>
        </mxCell>
        <mxCell id="MYHG3JWobE4DRymCTWOl-23" value="[Данные введены не верно]" style="edgeLabel;html=1;align=center;verticalAlign=middle;resizable=0;points=[];" vertex="1" connectable="0" parent="MYHG3JWobE4DRymCTWOl-22">
          <mxGeometry x="0.0694" y="2" relative="1" as="geometry">
            <mxPoint x="72" y="75" as="offset" />
          </mxGeometry>
        </mxCell>
        <mxCell id="MYHG3JWobE4DRymCTWOl-25" style="edgeStyle=orthogonalEdgeStyle;rounded=0;orthogonalLoop=1;jettySize=auto;html=1;exitX=0.5;exitY=1;exitDx=0;exitDy=0;" edge="1" parent="1" source="MYHG3JWobE4DRymCTWOl-17" target="MYHG3JWobE4DRymCTWOl-24">
          <mxGeometry relative="1" as="geometry" />
        </mxCell>
        <mxCell id="MYHG3JWobE4DRymCTWOl-27" value="[Данные введены верно]" style="edgeLabel;html=1;align=center;verticalAlign=middle;resizable=0;points=[];" vertex="1" connectable="0" parent="MYHG3JWobE4DRymCTWOl-25">
          <mxGeometry x="0.0514" y="-1" relative="1" as="geometry">
            <mxPoint as="offset" />
          </mxGeometry>
        </mxCell>
        <mxCell id="MYHG3JWobE4DRymCTWOl-17" value="Авторизация" style="rounded=1;whiteSpace=wrap;html=1;arcSize=40;fontColor=#000000;fillColor=#ffffc0;strokeColor=#ff0000;" vertex="1" parent="1">
          <mxGeometry x="205" y="230" width="120" height="40" as="geometry" />
        </mxCell>
        <mxCell id="MYHG3JWobE4DRymCTWOl-28" style="edgeStyle=orthogonalEdgeStyle;rounded=0;orthogonalLoop=1;jettySize=auto;html=1;exitX=0.5;exitY=1;exitDx=0;exitDy=0;" edge="1" parent="1" source="MYHG3JWobE4DRymCTWOl-24" target="MYHG3JWobE4DRymCTWOl-9">
          <mxGeometry relative="1" as="geometry" />
        </mxCell>
        <mxCell id="MYHG3JWobE4DRymCTWOl-24" value="Начать сессию" style="rounded=1;whiteSpace=wrap;html=1;arcSize=40;fontColor=#000000;fillColor=#ffffc0;strokeColor=#ff0000;" vertex="1" parent="1">
          <mxGeometry x="205" y="320" width="120" height="40" as="geometry" />
        </mxCell>
        <mxCell id="MYHG3JWobE4DRymCTWOl-32" value="Удалить товар со склада" style="edgeLabel;html=1;align=center;verticalAlign=middle;resizable=0;points=[];" vertex="1" connectable="0" parent="1">
          <mxGeometry x="389.9982758620691" y="490" as="geometry" />
        </mxCell>
        <mxCell id="MYHG3JWobE4DRymCTWOl-37" style="edgeStyle=orthogonalEdgeStyle;rounded=0;orthogonalLoop=1;jettySize=auto;html=1;exitX=0.5;exitY=0;exitDx=0;exitDy=0;entryX=0.625;entryY=0.003;entryDx=0;entryDy=0;entryPerimeter=0;" edge="1" parent="1" source="MYHG3JWobE4DRymCTWOl-7" target="MYHG3JWobE4DRymCTWOl-9">
          <mxGeometry relative="1" as="geometry">
            <Array as="points">
              <mxPoint x="910" y="370" />
              <mxPoint x="280" y="370" />
            </Array>
          </mxGeometry>
        </mxCell>
        <mxCell id="MYHG3JWobE4DRymCTWOl-38" style="edgeStyle=orthogonalEdgeStyle;rounded=0;orthogonalLoop=1;jettySize=auto;html=1;exitX=0.5;exitY=1;exitDx=0;exitDy=0;entryX=0.642;entryY=1.003;entryDx=0;entryDy=0;entryPerimeter=0;" edge="1" parent="1" source="MYHG3JWobE4DRymCTWOl-8" target="MYHG3JWobE4DRymCTWOl-9">
          <mxGeometry relative="1" as="geometry">
            <Array as="points">
              <mxPoint x="910" y="560" />
              <mxPoint x="282" y="560" />
            </Array>
          </mxGeometry>
        </mxCell>
        <mxCell id="MYHG3JWobE4DRymCTWOl-41" value="[Такого товара нет в системе]" style="edgeLabel;html=1;align=center;verticalAlign=middle;resizable=0;points=[];" vertex="1" connectable="0" parent="1">
          <mxGeometry x="400.003478002356" y="529.9999999999999" as="geometry" />
        </mxCell>
        <mxCell id="MYHG3JWobE4DRymCTWOl-47" value="" style="ellipse;html=1;shape=endState;fillColor=#000000;strokeColor=#ff0000;" vertex="1" parent="1">
          <mxGeometry x="1230" y="795" width="30" height="30" as="geometry" />
        </mxCell>
        <mxCell id="MYHG3JWobE4DRymCTWOl-48" value="" style="ellipse;html=1;shape=startState;fillColor=#000000;strokeColor=#ff0000;" vertex="1" parent="1">
          <mxGeometry x="1230" y="35" width="30" height="30" as="geometry" />
        </mxCell>
        <mxCell id="MYHG3JWobE4DRymCTWOl-49" value="" style="edgeStyle=orthogonalEdgeStyle;html=1;verticalAlign=bottom;endArrow=open;endSize=8;strokeColor=#ff0000;rounded=0;" edge="1" parent="1" source="MYHG3JWobE4DRymCTWOl-48">
          <mxGeometry relative="1" as="geometry">
            <mxPoint x="1245" y="125" as="targetPoint" />
          </mxGeometry>
        </mxCell>
        <mxCell id="MYHG3JWobE4DRymCTWOl-50" style="edgeStyle=orthogonalEdgeStyle;rounded=0;orthogonalLoop=1;jettySize=auto;html=1;exitX=0.5;exitY=1;exitDx=0;exitDy=0;" edge="1" parent="1" source="MYHG3JWobE4DRymCTWOl-52" target="MYHG3JWobE4DRymCTWOl-76">
          <mxGeometry relative="1" as="geometry" />
        </mxCell>
        <mxCell id="MYHG3JWobE4DRymCTWOl-51" value="Начать авторизацию" style="edgeLabel;html=1;align=center;verticalAlign=middle;resizable=0;points=[];" vertex="1" connectable="0" parent="MYHG3JWobE4DRymCTWOl-50">
          <mxGeometry x="-0.1678" relative="1" as="geometry">
            <mxPoint as="offset" />
          </mxGeometry>
        </mxCell>
        <mxCell id="MYHG3JWobE4DRymCTWOl-52" value="Ожидание создания сессии" style="rounded=1;whiteSpace=wrap;html=1;arcSize=40;fontColor=#000000;fillColor=#ffffc0;strokeColor=#ff0000;" vertex="1" parent="1">
          <mxGeometry x="1185" y="125" width="120" height="40" as="geometry" />
        </mxCell>
        <mxCell id="MYHG3JWobE4DRymCTWOl-53" value="Добавить пользователя" style="rounded=1;whiteSpace=wrap;html=1;arcSize=40;fontColor=#000000;fillColor=#ffffc0;strokeColor=#ff0000;" vertex="1" parent="1">
          <mxGeometry x="1830" y="405" width="120" height="40" as="geometry" />
        </mxCell>
        <mxCell id="MYHG3JWobE4DRymCTWOl-54" value="Удалить пользователя" style="rounded=1;whiteSpace=wrap;html=1;arcSize=40;fontColor=#000000;fillColor=#ffffc0;strokeColor=#ff0000;" vertex="1" parent="1">
          <mxGeometry x="1830" y="475" width="120" height="40" as="geometry" />
        </mxCell>
        <mxCell id="MYHG3JWobE4DRymCTWOl-55" style="edgeStyle=orthogonalEdgeStyle;rounded=0;orthogonalLoop=1;jettySize=auto;html=1;exitX=1;exitY=0.5;exitDx=0;exitDy=0;" edge="1" parent="1" source="MYHG3JWobE4DRymCTWOl-59">
          <mxGeometry relative="1" as="geometry">
            <mxPoint x="1460" y="425" as="targetPoint" />
          </mxGeometry>
        </mxCell>
        <mxCell id="MYHG3JWobE4DRymCTWOl-56" value="Добавить пользователя" style="edgeLabel;html=1;align=center;verticalAlign=middle;resizable=0;points=[];" vertex="1" connectable="0" parent="MYHG3JWobE4DRymCTWOl-55">
          <mxGeometry x="-0.0631" y="1" relative="1" as="geometry">
            <mxPoint y="-9" as="offset" />
          </mxGeometry>
        </mxCell>
        <mxCell id="MYHG3JWobE4DRymCTWOl-57" style="edgeStyle=orthogonalEdgeStyle;rounded=0;orthogonalLoop=1;jettySize=auto;html=1;exitX=1;exitY=0.5;exitDx=0;exitDy=0;entryX=0;entryY=0.5;entryDx=0;entryDy=0;" edge="1" parent="1" source="MYHG3JWobE4DRymCTWOl-59" target="MYHG3JWobE4DRymCTWOl-63">
          <mxGeometry relative="1" as="geometry">
            <mxPoint x="1440" y="495" as="targetPoint" />
            <Array as="points">
              <mxPoint x="1305" y="495" />
            </Array>
          </mxGeometry>
        </mxCell>
        <mxCell id="MYHG3JWobE4DRymCTWOl-58" style="edgeStyle=orthogonalEdgeStyle;rounded=0;orthogonalLoop=1;jettySize=auto;html=1;exitX=0.5;exitY=1;exitDx=0;exitDy=0;" edge="1" parent="1" source="MYHG3JWobE4DRymCTWOl-59" target="MYHG3JWobE4DRymCTWOl-69">
          <mxGeometry relative="1" as="geometry" />
        </mxCell>
        <mxCell id="MYHG3JWobE4DRymCTWOl-59" value="Ожидание выбора действия" style="rounded=1;whiteSpace=wrap;html=1;arcSize=40;fontColor=#000000;fillColor=#ffffc0;strokeColor=#ff0000;" vertex="1" parent="1">
          <mxGeometry x="1185" y="405" width="120" height="40" as="geometry" />
        </mxCell>
        <mxCell id="MYHG3JWobE4DRymCTWOl-60" style="edgeStyle=orthogonalEdgeStyle;rounded=0;orthogonalLoop=1;jettySize=auto;html=1;exitX=0.5;exitY=1;exitDx=0;exitDy=0;entryX=0.75;entryY=1;entryDx=0;entryDy=0;" edge="1" parent="1" source="MYHG3JWobE4DRymCTWOl-63" target="MYHG3JWobE4DRymCTWOl-59">
          <mxGeometry relative="1" as="geometry">
            <Array as="points">
              <mxPoint x="1520" y="525" />
              <mxPoint x="1275" y="525" />
            </Array>
          </mxGeometry>
        </mxCell>
        <mxCell id="MYHG3JWobE4DRymCTWOl-61" style="edgeStyle=orthogonalEdgeStyle;rounded=0;orthogonalLoop=1;jettySize=auto;html=1;exitX=1;exitY=0.5;exitDx=0;exitDy=0;entryX=0;entryY=0.5;entryDx=0;entryDy=0;" edge="1" parent="1" source="MYHG3JWobE4DRymCTWOl-63" target="MYHG3JWobE4DRymCTWOl-54">
          <mxGeometry relative="1" as="geometry" />
        </mxCell>
        <mxCell id="MYHG3JWobE4DRymCTWOl-62" value="[Пользователь есть в системе]" style="edgeLabel;html=1;align=center;verticalAlign=middle;resizable=0;points=[];" vertex="1" connectable="0" parent="MYHG3JWobE4DRymCTWOl-61">
          <mxGeometry x="-0.2813" y="1" relative="1" as="geometry">
            <mxPoint x="20" y="-9" as="offset" />
          </mxGeometry>
        </mxCell>
        <mxCell id="MYHG3JWobE4DRymCTWOl-63" value="Обработка запроса на удаление" style="rounded=1;whiteSpace=wrap;html=1;arcSize=40;fontColor=#000000;fillColor=#ffffc0;strokeColor=#ff0000;" vertex="1" parent="1">
          <mxGeometry x="1460" y="475" width="120" height="40" as="geometry" />
        </mxCell>
        <mxCell id="MYHG3JWobE4DRymCTWOl-64" style="edgeStyle=orthogonalEdgeStyle;rounded=0;orthogonalLoop=1;jettySize=auto;html=1;exitX=0.5;exitY=0;exitDx=0;exitDy=0;entryX=0.75;entryY=0;entryDx=0;entryDy=0;" edge="1" parent="1" source="MYHG3JWobE4DRymCTWOl-68" target="MYHG3JWobE4DRymCTWOl-59">
          <mxGeometry relative="1" as="geometry" />
        </mxCell>
        <mxCell id="MYHG3JWobE4DRymCTWOl-65" value="[Пользователь уже есть в системе]" style="edgeLabel;html=1;align=center;verticalAlign=middle;resizable=0;points=[];" vertex="1" connectable="0" parent="MYHG3JWobE4DRymCTWOl-64">
          <mxGeometry x="0.0939" y="-2" relative="1" as="geometry">
            <mxPoint as="offset" />
          </mxGeometry>
        </mxCell>
        <mxCell id="MYHG3JWobE4DRymCTWOl-66" style="edgeStyle=orthogonalEdgeStyle;rounded=0;orthogonalLoop=1;jettySize=auto;html=1;entryX=0;entryY=0.5;entryDx=0;entryDy=0;exitX=1;exitY=0.5;exitDx=0;exitDy=0;" edge="1" parent="1" source="MYHG3JWobE4DRymCTWOl-68" target="MYHG3JWobE4DRymCTWOl-53">
          <mxGeometry relative="1" as="geometry">
            <mxPoint x="1650" y="425" as="sourcePoint" />
          </mxGeometry>
        </mxCell>
        <mxCell id="MYHG3JWobE4DRymCTWOl-67" value="[Пользователя нет в системе]" style="edgeLabel;html=1;align=center;verticalAlign=middle;resizable=0;points=[];" vertex="1" connectable="0" parent="MYHG3JWobE4DRymCTWOl-66">
          <mxGeometry x="-0.2517" y="1" relative="1" as="geometry">
            <mxPoint x="16" y="-9" as="offset" />
          </mxGeometry>
        </mxCell>
        <mxCell id="MYHG3JWobE4DRymCTWOl-68" value="Обработка запроса на добавление" style="rounded=1;whiteSpace=wrap;html=1;arcSize=40;fontColor=#000000;fillColor=#ffffc0;strokeColor=#ff0000;" vertex="1" parent="1">
          <mxGeometry x="1460" y="405" width="120" height="40" as="geometry" />
        </mxCell>
        <mxCell id="MYHG3JWobE4DRymCTWOl-69" value="Завершить сессию&lt;div&gt;&lt;br&gt;&lt;/div&gt;" style="rounded=1;whiteSpace=wrap;html=1;arcSize=40;fontColor=#000000;fillColor=#ffffc0;strokeColor=#ff0000;" vertex="1" parent="1">
          <mxGeometry x="1185" y="645" width="120" height="40" as="geometry" />
        </mxCell>
        <mxCell id="MYHG3JWobE4DRymCTWOl-70" style="edgeStyle=orthogonalEdgeStyle;rounded=0;orthogonalLoop=1;jettySize=auto;html=1;exitX=0.5;exitY=1;exitDx=0;exitDy=0;" edge="1" parent="1" source="MYHG3JWobE4DRymCTWOl-69" target="MYHG3JWobE4DRymCTWOl-47">
          <mxGeometry relative="1" as="geometry">
            <mxPoint x="1245" y="755" as="sourcePoint" />
          </mxGeometry>
        </mxCell>
        <mxCell id="MYHG3JWobE4DRymCTWOl-71" value="Завершить сессию" style="edgeLabel;html=1;align=center;verticalAlign=middle;resizable=0;points=[];" vertex="1" connectable="0" parent="MYHG3JWobE4DRymCTWOl-70">
          <mxGeometry x="-0.2874" y="-2" relative="1" as="geometry">
            <mxPoint as="offset" />
          </mxGeometry>
        </mxCell>
        <mxCell id="MYHG3JWobE4DRymCTWOl-72" style="edgeStyle=orthogonalEdgeStyle;rounded=0;orthogonalLoop=1;jettySize=auto;html=1;exitX=0;exitY=0.5;exitDx=0;exitDy=0;entryX=0;entryY=0.5;entryDx=0;entryDy=0;" edge="1" parent="1" source="MYHG3JWobE4DRymCTWOl-76" target="MYHG3JWobE4DRymCTWOl-52">
          <mxGeometry relative="1" as="geometry">
            <Array as="points">
              <mxPoint x="1040" y="245" />
              <mxPoint x="1040" y="145" />
            </Array>
          </mxGeometry>
        </mxCell>
        <mxCell id="MYHG3JWobE4DRymCTWOl-73" value="[Данные введены не верно]" style="edgeLabel;html=1;align=center;verticalAlign=middle;resizable=0;points=[];" vertex="1" connectable="0" parent="MYHG3JWobE4DRymCTWOl-72">
          <mxGeometry x="0.0694" y="2" relative="1" as="geometry">
            <mxPoint x="72" y="75" as="offset" />
          </mxGeometry>
        </mxCell>
        <mxCell id="MYHG3JWobE4DRymCTWOl-74" style="edgeStyle=orthogonalEdgeStyle;rounded=0;orthogonalLoop=1;jettySize=auto;html=1;exitX=0.5;exitY=1;exitDx=0;exitDy=0;" edge="1" parent="1" source="MYHG3JWobE4DRymCTWOl-76" target="MYHG3JWobE4DRymCTWOl-78">
          <mxGeometry relative="1" as="geometry" />
        </mxCell>
        <mxCell id="MYHG3JWobE4DRymCTWOl-75" value="[Данные введены верно]" style="edgeLabel;html=1;align=center;verticalAlign=middle;resizable=0;points=[];" vertex="1" connectable="0" parent="MYHG3JWobE4DRymCTWOl-74">
          <mxGeometry x="0.0514" y="-1" relative="1" as="geometry">
            <mxPoint as="offset" />
          </mxGeometry>
        </mxCell>
        <mxCell id="MYHG3JWobE4DRymCTWOl-76" value="Авторизация" style="rounded=1;whiteSpace=wrap;html=1;arcSize=40;fontColor=#000000;fillColor=#ffffc0;strokeColor=#ff0000;" vertex="1" parent="1">
          <mxGeometry x="1185" y="225" width="120" height="40" as="geometry" />
        </mxCell>
        <mxCell id="MYHG3JWobE4DRymCTWOl-77" style="edgeStyle=orthogonalEdgeStyle;rounded=0;orthogonalLoop=1;jettySize=auto;html=1;exitX=0.5;exitY=1;exitDx=0;exitDy=0;" edge="1" parent="1" source="MYHG3JWobE4DRymCTWOl-78" target="MYHG3JWobE4DRymCTWOl-59">
          <mxGeometry relative="1" as="geometry" />
        </mxCell>
        <mxCell id="MYHG3JWobE4DRymCTWOl-78" value="Начать сессию" style="rounded=1;whiteSpace=wrap;html=1;arcSize=40;fontColor=#000000;fillColor=#ffffc0;strokeColor=#ff0000;" vertex="1" parent="1">
          <mxGeometry x="1185" y="315" width="120" height="40" as="geometry" />
        </mxCell>
        <mxCell id="MYHG3JWobE4DRymCTWOl-79" value="Удалить пользователя" style="edgeLabel;html=1;align=center;verticalAlign=middle;resizable=0;points=[];" vertex="1" connectable="0" parent="1">
          <mxGeometry x="1369.998275862069" y="485" as="geometry" />
        </mxCell>
        <mxCell id="MYHG3JWobE4DRymCTWOl-80" style="edgeStyle=orthogonalEdgeStyle;rounded=0;orthogonalLoop=1;jettySize=auto;html=1;exitX=0.5;exitY=0;exitDx=0;exitDy=0;entryX=0.625;entryY=0.003;entryDx=0;entryDy=0;entryPerimeter=0;" edge="1" parent="1" source="MYHG3JWobE4DRymCTWOl-53" target="MYHG3JWobE4DRymCTWOl-59">
          <mxGeometry relative="1" as="geometry">
            <Array as="points">
              <mxPoint x="1890" y="365" />
              <mxPoint x="1260" y="365" />
            </Array>
          </mxGeometry>
        </mxCell>
        <mxCell id="MYHG3JWobE4DRymCTWOl-81" style="edgeStyle=orthogonalEdgeStyle;rounded=0;orthogonalLoop=1;jettySize=auto;html=1;exitX=0.5;exitY=1;exitDx=0;exitDy=0;entryX=0.642;entryY=1.003;entryDx=0;entryDy=0;entryPerimeter=0;" edge="1" parent="1" source="MYHG3JWobE4DRymCTWOl-54" target="MYHG3JWobE4DRymCTWOl-59">
          <mxGeometry relative="1" as="geometry">
            <Array as="points">
              <mxPoint x="1890" y="555" />
              <mxPoint x="1262" y="555" />
            </Array>
          </mxGeometry>
        </mxCell>
        <mxCell id="MYHG3JWobE4DRymCTWOl-82" value="[Пользователя нет в системе]" style="edgeLabel;html=1;align=center;verticalAlign=middle;resizable=0;points=[];" vertex="1" connectable="0" parent="1">
          <mxGeometry x="1380.0034780023561" y="524.9999999999999" as="geometry" />
        </mxCell>
      </root>
    </mxGraphModel>
  </diagram>
</mxfile>
